<svg width="350" height="270" xmlns="http://www.w3.org/2000/svg">
  <rect width="350" height="270" rx="6" fill="#0d1117" stroke="#30363d" stroke-width="1"/>
  <text x="25" y="35" fill="#58A6FF" font-family="Segoe UI, Ubuntu, sans-serif" font-weight="600" font-size="16">Top Languages</text>
  <line x1="25" y1="48" x2="325" y2="48" stroke="#21262d" stroke-width="1"/>
  <rect x="25" y="58" width="106" height="14" rx="3" fill="#4F5D95"/>
  <text x="141" y="69" fill="#c9d1d9" font-family="Segoe UI, Ubuntu, sans-serif" font-size="12">PHP (42.4%)</text>
  <rect x="25" y="82" width="65" height="14" rx="3" fill="#f1e05a"/>
  <text x="100" y="93" fill="#c9d1d9" font-family="Segoe UI, Ubuntu, sans-serif" font-size="12">JavaScript (26.3%)</text>
  <rect x="25" y="106" width="63" height="14" rx="3" fill="#e34c26"/>
  <text x="98" y="117" fill="#c9d1d9" font-family="Segoe UI, Ubuntu, sans-serif" font-size="12">HTML (25.2%)</text>
  <rect x="25" y="130" width="14" height="14" rx="3" fill="#663399"/>
  <text x="49" y="141" fill="#c9d1d9" font-family="Segoe UI, Ubuntu, sans-serif" font-size="12">CSS (5.7%)</text>
  <rect x="25" y="154" width="2" height="14" rx="3" fill="#c6538c"/>
  <text x="37" y="165" fill="#c9d1d9" font-family="Segoe UI, Ubuntu, sans-serif" font-size="12">SCSS (0.2%)</text>
  <rect x="25" y="178" width="2" height="14" rx="3" fill="#ff3e00"/>
  <text x="37" y="189" fill="#c9d1d9" font-family="Segoe UI, Ubuntu, sans-serif" font-size="12">Svelte (0.1%)</text>
  <rect x="25" y="202" width="2" height="14" rx="3" fill="#f7523f"/>
  <text x="37" y="213" fill="#c9d1d9" font-family="Segoe UI, Ubuntu, sans-serif" font-size="12">Blade (0.0%)</text>
  <rect x="25" y="226" width="2" height="14" rx="3" fill="#89e051"/>
  <text x="37" y="237" fill="#c9d1d9" font-family="Segoe UI, Ubuntu, sans-serif" font-size="12">Shell (0.0%)</text>
</svg>